<svg width="48" height="48" viewBox="0 0 48 48" fill="none" xmlns="http://www.w3.org/2000/svg">
<circle cx="24" cy="24" r="23.5" fill="white" stroke="#000E08"/>
<path d="M33.6841 30.3869C33.3211 31.2254 32.8915 31.9972 32.3938 32.7068C31.7153 33.6742 31.1597 34.3438 30.7316 34.7157C30.0679 35.326 29.3568 35.6386 28.5954 35.6564C28.0487 35.6564 27.3895 35.5008 26.6221 35.1853C25.8522 34.8712 25.1446 34.7156 24.4977 34.7156C23.8192 34.7156 23.0915 34.8712 22.3132 35.1853C21.5336 35.5008 20.9057 35.6653 20.4255 35.6815C19.6953 35.7127 18.9675 35.3912 18.241 34.7156C17.7773 34.3112 17.1973 33.6179 16.5025 32.6357C15.7571 31.5868 15.1442 30.3706 14.6641 28.984C14.1499 27.4863 13.8921 26.0359 13.8921 24.6318C13.8921 23.0234 14.2396 21.6362 14.9358 20.4737C15.4829 19.54 16.2107 18.8034 17.1216 18.2627C18.0325 17.722 19.0168 17.4464 20.0768 17.4288C20.6568 17.4288 21.4173 17.6082 22.3625 17.9608C23.305 18.3145 23.9102 18.4939 24.1755 18.4939C24.3738 18.4939 25.0461 18.2842 26.1858 17.866C27.2636 17.4781 28.1731 17.3175 28.9183 17.3808C30.9375 17.5437 32.4545 18.3397 33.4634 19.7737C31.6575 20.8679 30.7642 22.4005 30.7819 24.3665C30.7982 25.8978 31.3538 27.1722 32.4456 28.184C32.9404 28.6536 33.493 29.0166 34.1078 29.2744C33.9745 29.661 33.8337 30.0314 33.6841 30.3869V30.3869ZM29.0531 12.1637C29.0531 13.364 28.6146 14.4847 27.7406 15.522C26.6858 16.7552 25.41 17.4677 24.0265 17.3553C24.0079 17.2044 23.9986 17.0525 23.9986 16.9005C23.9986 15.7482 24.5002 14.5151 25.391 13.5068C25.8357 12.9963 26.4014 12.5718 27.0873 12.2332C27.7717 11.8997 28.4191 11.7152 29.0279 11.6836C29.0457 11.844 29.0531 12.0045 29.0531 12.1637V12.1637Z" fill="black"/>
</svg>
